<svg xmlns="http://www.w3.org/2000/svg" version="1.1" xmlns:xlink="http://www.w3.org/1999/xlink" width="512" height="512" x="0" y="0" viewBox="0 0 512 512" style="enable-background:new 0 0 512 512" xml:space="preserve"><g><path d="M484.02 119.857h-28.546V96.262a8 8 0 0 0-8-8h-3.599V45.208a8 8 0 0 0-8-8h-50.407a8 8 0 0 0-8 8v43.054h-3.6a8 8 0 0 0-8 8v23.596H146.132V96.262a8 8 0 0 0-8-8h-3.599V45.208a8 8 0 0 0-8-8H76.125a8 8 0 0 0-8 8v43.054h-3.599a8 8 0 0 0-8 8v23.596H27.98C12.551 119.858 0 132.41 0 147.838v298.974c0 15.429 12.552 27.98 27.98 27.98h456.04c15.429 0 27.98-12.552 27.98-27.98V147.838c0-15.429-12.552-27.981-27.98-27.981zm-90.552-66.649h34.407v35.054h-34.407zm-11.6 51.054h57.605v15.596h-57.605zM84.125 53.208h34.408v35.054H84.125zm-11.599 51.054h57.605v15.596H72.526zM27.98 135.857h456.04c6.606 0 11.98 5.374 11.98 11.98v27.137H16v-27.137c0-6.606 5.374-11.98 11.98-11.98zM496 190.975v212.508H16V190.975zm-11.98 267.817H27.98c-6.606 0-11.98-5.374-11.98-11.98v-27.329h480v27.329c0 6.606-5.374 11.98-11.98 11.98zM351.811 261.527a8 8 0 0 1 8-8h28.031v-28.031a8 8 0 0 1 16 0v28.031h28.03a8 8 0 0 1 0 16h-28.03v28.03a8 8 0 0 1-16 0v-28.03h-28.031a8 8 0 0 1-8-8zM72.128 266.35a8 8 0 0 1 8-8h72.062a8 8 0 0 1 0 16H80.128a8 8 0 0 1-8-8zm126.664 50.507h41.523l-6.352 54.424a8.002 8.002 0 0 0 14.169 5.956l71.298-88.196a8 8 0 0 0-6.222-13.03h-42.031l3.093-53.106a8 8 0 0 0-14.291-5.388l-67.491 86.417a8 8 0 0 0 6.304 12.923zm58.014-69.285-2.095 35.975a8.002 8.002 0 0 0 7.986 8.465h33.757l-43.396 53.681 4.19-35.907a8.001 8.001 0 0 0-7.947-8.928H215.19z" fill="#FFFFFF" opacity="1" data-original="#000000"></path></g></svg>