<svg xmlns="http://www.w3.org/2000/svg" version="1.1" xmlns:xlink="http://www.w3.org/1999/xlink" width="512" height="512" x="0" y="0" viewBox="0 0 512 512" style="enable-background:new 0 0 512 512" xml:space="preserve" class=""><g><path fill-rule="evenodd" d="m497.524 457.191-63.535-63.534c-3.531-3.531-8.238-5.477-13.253-5.477-1.399 0-2.769.167-4.1.461l-14.651-14.651c10.305-15.571 16.316-34.219 16.316-54.249 0-42.269-26.75-78.404-64.208-92.378V85.607c0-12.677-10.313-22.989-22.989-22.989h-66.315V50.145a7 7 0 0 0-7-7h-35.693C218.763 23.78 201.848 9 181.547 9s-37.216 14.78-40.549 34.145h-35.693a7 7 0 0 0-7 7v12.474H31.989C19.313 62.618 9 72.931 9 85.607V480.01C9 492.688 19.313 503 31.989 503h299.115c12.676 0 22.989-10.312 22.989-22.989v-67.89a98.312 98.312 0 0 0 19.898-10.136l14.651 14.651a18.93 18.93 0 0 0-.461 4.1c0 5.016 1.944 9.722 5.476 13.254l63.535 63.534c3.531 3.531 8.238 5.477 13.253 5.477s9.722-1.945 13.253-5.476l13.827-13.827c3.531-3.531 5.475-8.237 5.475-13.253s-1.945-9.722-5.476-13.254zm-93.223-137.449c0 46.626-37.933 84.559-84.559 84.559-46.625 0-84.558-37.933-84.558-84.559 0-46.625 37.933-84.558 84.558-84.558 46.626.001 84.559 37.933 84.559 84.558zm-96.186-211.145v113.277c-48.885 5.772-86.931 47.458-86.931 97.868 0 50.412 38.046 92.098 86.931 97.869v39.41H54.979V108.597zm22.989-31.979c4.957 0 8.989 4.032 8.989 8.989v137.695a98.458 98.458 0 0 0-17.978-2.088V101.597a7 7 0 0 0-7-7h-50.326V76.618zM147.402 57.145a7 7 0 0 0 7-7c0-14.968 12.177-27.145 27.145-27.145s27.146 12.177 27.146 27.145a7 7 0 0 0 7 7h35.097v37.452H112.304V57.145zm192.691 422.866c0 4.957-4.032 8.989-8.989 8.989H31.989c-4.957 0-8.989-4.032-8.989-8.989V85.607c0-4.957 4.032-8.989 8.989-8.989h66.315v17.979H47.979a7 7 0 0 0-7 7v362.425a7 7 0 0 0 7 7h267.136a7 7 0 0 0 7-7v-45.751a98.458 98.458 0 0 0 17.978-2.088zm53.28-94.831 11.293 11.293-8.194 8.194-11.293-11.293a99.304 99.304 0 0 0 8.194-8.194zm94.252 88.618-13.827 13.827c-.886.887-2.077 1.375-3.353 1.375s-2.467-.488-3.354-1.376l-63.535-63.534a4.705 4.705 0 0 1-1.375-3.354c0-1.275.488-2.467 1.375-3.353l13.826-13.826c.887-.888 2.078-1.376 3.354-1.376s2.467.488 3.354 1.376l63.535 63.535c.887.886 1.375 2.077 1.375 3.353s-.489 2.467-1.375 3.353zM244.971 319.742c0 41.229 33.542 74.771 74.771 74.771s74.771-33.542 74.771-74.771-33.542-74.771-74.771-74.771-74.771 33.542-74.771 74.771zm74.771-60.771c33.509 0 60.771 27.262 60.771 60.771s-27.262 60.771-60.771 60.771-60.771-27.262-60.771-60.771 27.262-60.771 60.771-60.771zm-180.236 64.555a7.002 7.002 0 0 0-12.284 0c-2.144 3.922-4.913 8.317-7.845 12.971-13.264 21.049-31.428 49.878-10.637 70.669 6.556 6.557 15.3 10.167 24.624 10.167s18.068-3.61 24.624-10.166c21.095-21.095 1.577-51.705-11.339-71.961-2.732-4.284-5.312-8.33-7.143-11.68zm8.582 73.742c-3.912 3.911-9.141 6.065-14.725 6.065-5.583 0-10.812-2.154-14.724-6.066-11.938-11.938-1.848-30.404 12.582-53.307.741-1.176 1.472-2.336 2.188-3.48l1.435 2.254c14.438 22.643 25.401 42.376 13.244 54.534zM82.724 219.562c2.997 0 4.212 2.154 4.596 3.08.383.926 1.047 3.309-1.074 5.43-4.113 4.116-4.113 10.812.002 14.93l7.656 7.655c1.994 1.995 4.646 3.094 7.466 3.094s5.472-1.099 7.465-3.093c2.125-2.126 4.506-1.463 5.432-1.079.925.383 3.077 1.599 3.077 4.604 0 5.821 4.736 10.557 10.557 10.557h10.83c5.821 0 10.557-4.735 10.557-10.557 0-2.997 2.154-4.213 3.08-4.597.926-.382 3.31-1.047 5.428 1.071a10.49 10.49 0 0 0 7.466 3.093c2.821 0 5.473-1.099 7.464-3.092l7.66-7.658c4.114-4.116 4.114-10.813-.001-14.93-2.119-2.119-1.456-4.502-1.072-5.429.383-.926 1.599-3.08 4.596-3.08 5.821 0 10.557-4.735 10.557-10.557v-10.83c0-5.821-4.736-10.557-10.557-10.557-2.997 0-4.212-2.154-4.596-3.08-.384-.927-1.047-3.311 1.071-5.429a10.483 10.483 0 0 0 3.093-7.465c0-2.821-1.098-5.473-3.092-7.465l-7.658-7.658c-4.116-4.117-10.812-4.116-14.93 0-2.119 2.119-4.502 1.457-5.429 1.071-.926-.384-3.08-1.6-3.08-4.596 0-5.821-4.736-10.558-10.557-10.558h-10.83c-5.821 0-10.557 4.736-10.557 10.558 0 2.996-2.154 4.212-3.081 4.596-.925.385-3.309 1.048-5.429-1.072-4.116-4.115-10.814-4.116-14.929.001l-7.658 7.658c-4.116 4.115-4.116 10.813 0 14.929 2.12 2.12 1.456 4.503 1.072 5.43-.383.926-1.599 3.08-4.596 3.08-5.821 0-10.557 4.735-10.557 10.557v10.83c.001 5.823 4.737 10.558 10.558 10.558zm3.443-18.242c6.311-1.114 11.542-5.28 14.087-11.424 2.545-6.145 1.792-12.79-1.883-18.04l3.212-3.212c5.25 3.675 11.896 4.426 18.04 1.884 6.144-2.545 10.311-7.777 11.424-14.088h4.541c1.114 6.311 5.28 11.543 11.424 14.088 6.144 2.543 12.79 1.792 18.04-1.884l3.211 3.212c-3.675 5.25-4.428 11.896-1.883 18.04s7.776 10.31 14.087 11.424v4.541c-6.311 1.114-11.543 5.28-14.087 11.424-2.545 6.144-1.791 12.79 1.883 18.04l-3.211 3.211c-5.252-3.675-11.898-4.427-18.041-1.883-6.143 2.545-10.309 7.776-11.423 14.087h-4.541c-1.113-6.316-5.279-11.551-11.421-14.096-6.142-2.542-12.789-1.788-18.043 1.892l-3.211-3.211c3.675-5.251 4.428-11.896 1.884-18.04-2.545-6.144-7.776-10.31-14.087-11.424v-4.541zm47.15 35.287c18.206 0 33.017-14.812 33.017-33.018 0-18.205-14.812-33.017-33.017-33.017S100.3 185.384 100.3 203.589c0 18.207 14.812 33.018 33.017 33.018zm0-52.034c10.486 0 19.017 8.53 19.017 19.017s-8.531 19.018-19.017 19.018-19.017-8.531-19.017-19.018 8.531-19.017 19.017-19.017zm79.995 19.018a7 7 0 0 1 7-7h63.615a7 7 0 1 1 0 14h-63.615a7 7 0 0 1-7-7zm0 27.074a7 7 0 0 1 7-7h31.807a7 7 0 1 1 0 14h-31.807a7 7 0 0 1-7-7zm0-54.148a7 7 0 0 1 7-7h63.615a7 7 0 1 1 0 14h-63.615a7 7 0 0 1-7-7zM172.547 50.145c0-4.957 4.043-9 9-9s9 4.043 9 9-4.043 9-9 9c-4.958 0-9-4.043-9-9z" clip-rule="evenodd" fill="#FFFFFF" opacity="1" data-original="#000000" class=""></path></g></svg>