<svg xmlns="http://www.w3.org/2000/svg" version="1.1" xmlns:xlink="http://www.w3.org/1999/xlink" width="512" height="512" x="0" y="0" viewBox="0 0 64 64" style="enable-background:new 0 0 512 512" xml:space="preserve" class=""><g><path d="M1 61v2h62v-2H17zM17 49c-2.206 0-4 1.794-4 4s1.794 4 4 4 4-1.794 4-4-1.794-4-4-4zm0 6c-1.103 0-2-.897-2-2s.897-2 2-2 2 .897 2 2-.897 2-2 2zM47 49c-2.206 0-4 1.794-4 4s1.794 4 4 4 4-1.794 4-4-1.794-4-4-4zm0 6c-1.103 0-2-.897-2-2s.897-2 2-2 2 .897 2 2-.897 2-2 2z" fill="#FFFFFF" opacity="1" data-original="#000000"></path><path d="m62.447 40.105-7.794-3.897-1.07-1.39C59.188 31.764 63 25.819 63 19c0-9.925-8.075-18-18-18S27 9.075 27 19c0 1.435.187 2.823.505 4.162a6.965 6.965 0 0 0-4.099 2.57l-7.48 9.723L2.731 21.317l-1.462 1.365 6.494 6.958-2.617 8.719C2.716 39.157 1 41.443 1 44.042V51c0 1.654 1.346 3 3 3h5.069c.495 3.94 3.859 7 7.931 7s7.436-3.06 7.931-7H39.07c.495 3.94 3.859 7 7.931 7s7.436-3.06 7.931-7H60c1.654 0 3-1.346 3-3V41c0-.379-.214-.725-.553-.895zM61 48h-2v-7.382l2 1zM45 3c8.822 0 16 7.178 16 16s-7.178 16-16 16-16-7.178-16-16S36.178 3 45 3zm2.08 34H36v-2.436A17.858 17.858 0 0 0 45 37c.676 0 1.341-.045 1.997-.118zm-17.036-8A18.116 18.116 0 0 0 34 33.216V37H22.92l5.003-7.147A2 2 0 0 1 29.562 29zm-15.979 7.392-6.669 1.429 1.947-6.488zM3.004 44H5v2H3v-1.958c0-.014.004-.028.004-.042zM17 59c-3.309 0-6-2.691-6-6s2.691-6 6-6 6 2.691 6 6-2.691 6-6 6zm30 0c-3.309 0-6-2.691-6-6s2.691-6 6-6 6 2.691 6 6-2.691 6-6 6zm13-7h-5.069c-.495-3.94-3.859-7-7.931-7s-7.436 3.06-7.931 7H24.931c-.495-3.94-3.859-7-7.931-7s-7.436 3.06-7.931 7H4c-.551 0-1-.448-1-1v-3h3a1 1 0 0 0 1-1v-4a1 1 0 0 0-1-1H3.575a4.003 4.003 0 0 1 2.587-1.869l10.048-2.153c.232-.05.438-.18.583-.368l8.199-10.658a4.98 4.98 0 0 1 3.089-1.869c.245.678.526 1.337.846 1.975a4.002 4.002 0 0 0-2.642 1.649l-6.104 8.721A1 1 0 0 0 21 39h28a.999.999 0 0 0 .82-1.573l-.653-.933c.879-.21 1.736-.477 2.56-.81l1.481 1.926a.99.99 0 0 0 .345.285L57 39.618V49a1 1 0 0 0 1 1h3v1c0 .552-.449 1-1 1z" fill="#FFFFFF" opacity="1" data-original="#000000"></path><path d="M32 41h4v2h-4zM46 41h4v2h-4zM38 31h14c1.654 0 3-1.346 3-3V17a.996.996 0 0 0-.293-.707l-5-5A.997.997 0 0 0 49 11h-5V6a1 1 0 0 0-1-1h-4a1 1 0 0 0-1 1v5.424A5.003 5.003 0 0 0 35 16v12c0 1.654 1.346 3 3 3zm2-24h2v4h-2zm-3 9c0-1.654 1.346-3 3-3h8.586L53 17.414V28c0 .552-.449 1-1 1H38c-.551 0-1-.448-1-1z" fill="#FFFFFF" opacity="1" data-original="#000000"></path><path d="M45 24h5a1 1 0 0 0 1-1v-4a.996.996 0 0 0-.293-.707l-3-3A.997.997 0 0 0 47 15h-2a1 1 0 0 0-1 1v7a1 1 0 0 0 1 1zm1-7h.586L49 19.414V22h-3zM11 25c2.206 0 4-1.794 4-4v-1c0-.155-.036-.309-.105-.447l-3-6c-.339-.678-1.45-.678-1.789 0l-3 6A.99.99 0 0 0 7 20v1c0 2.206 1.794 4 4 4zm-2-4.764 2-4 2 4V21c0 1.103-.897 2-2 2s-2-.897-2-2z" fill="#FFFFFF" opacity="1" data-original="#000000"></path></g></svg>